STARTFONT 2.3
FONT -FontForge-Satisfy-Book-R-Normal--8-80-72-72-P-35-ISO10646-1
SIZE 8 72 72  2
FONTBOUNDINGBOX 10 12 -2 -4
COMMENT "Generated by fontforge, http://fontforge.sourceforge.net"
COMMENT "Copyright (c) 2011 by Font Diner, Inc. All rights reserved."
STARTPROPERTIES 40
FOUNDRY "FontForge"
FAMILY_NAME "Satisfy"
WEIGHT_NAME "Book"
SLANT "R"
SETWIDTH_NAME "Normal"
ADD_STYLE_NAME ""
PIXEL_SIZE 8
POINT_SIZE 80
RESOLUTION_X 72
RESOLUTION_Y 72
SPACING "P"
AVERAGE_WIDTH 35
CHARSET_REGISTRY "ISO10646"
CHARSET_ENCODING "1"
FONTNAME_REGISTRY ""
CHARSET_COLLECTIONS "ISO10646-1"
BITS_PER_PIXEL 2
FONT_NAME "Satisfy-Regular"
FACE_NAME "Satisfy Regular"
COPYRIGHT "Copyright (c) 2011 by Font Diner, Inc. All rights reserved."
FONT_VERSION "1.001"
FONT_ASCENT 6
FONT_DESCENT 2
UNDERLINE_POSITION -1
UNDERLINE_THICKNESS 1
X_HEIGHT 2
CAP_HEIGHT 5
RAW_ASCENT 799
RAW_DESCENT 200
NORM_SPACE 2
RELATIVE_WEIGHT 40
RELATIVE_SETWIDTH 50
SUPERSCRIPT_X 0
SUPERSCRIPT_Y 3
SUPERSCRIPT_SIZE 5
SUBSCRIPT_X 0
SUBSCRIPT_Y 1
SUBSCRIPT_SIZE 5
AVG_LOWERCASE_WIDTH 32
AVG_UPPERCASE_WIDTH 45
ENDPROPERTIES
CHARS 227
STARTCHAR space
ENCODING 32
SWIDTH 280 0
DWIDTH 2 0
BBX 1 1 0 0
BITMAP
00
ENDCHAR
STARTCHAR exclam
ENCODING 33
SWIDTH 249 0
DWIDTH 2 0
BBX 2 6 0 0
BITMAP
20
20
60
50
80
40
ENDCHAR
STARTCHAR quotedbl
ENCODING 34
SWIDTH 249 0
DWIDTH 2 0
BBX 3 3 0 3
BITMAP
54
54
50
ENDCHAR
STARTCHAR numbersign
ENCODING 35
SWIDTH 417 0
DWIDTH 3 0
BBX 4 4 0 1
BITMAP
14
69
A8
90
ENDCHAR
STARTCHAR dollar
ENCODING 36
SWIDTH 292 0
DWIDTH 2 0
BBX 4 6 -1 0
BITMAP
04
16
15
08
58
24
ENDCHAR
STARTCHAR percent
ENCODING 37
SWIDTH 574 0
DWIDTH 5 0
BBX 5 6 0 0
BITMAP
2140
9600
6800
1500
2940
8A00
ENDCHAR
STARTCHAR ampersand
ENCODING 38
SWIDTH 460 0
DWIDTH 4 0
BBX 5 7 -1 -1
BITMAP
0640
0A00
0800
2800
5900
6A00
0100
ENDCHAR
STARTCHAR quotesingle
ENCODING 39
SWIDTH 113 0
DWIDTH 1 0
BBX 2 3 0 3
BITMAP
50
40
40
ENDCHAR
STARTCHAR parenleft
ENCODING 40
SWIDTH 234 0
DWIDTH 2 0
BBX 3 8 0 -1
BITMAP
04
10
10
50
80
80
80
40
ENDCHAR
STARTCHAR parenright
ENCODING 41
SWIDTH 204 0
DWIDTH 2 0
BBX 3 7 -1 -1
BITMAP
04
08
14
14
20
10
40
ENDCHAR
STARTCHAR asterisk
ENCODING 42
SWIDTH 327 0
DWIDTH 3 0
BBX 3 3 0 3
BITMAP
14
68
54
ENDCHAR
STARTCHAR plus
ENCODING 43
SWIDTH 350 0
DWIDTH 3 0
BBX 3 3 0 1
BITMAP
20
64
10
ENDCHAR
STARTCHAR comma
ENCODING 44
SWIDTH 200 0
DWIDTH 2 0
BBX 1 2 0 -1
BITMAP
40
40
ENDCHAR
STARTCHAR hyphen
ENCODING 45
SWIDTH 353 0
DWIDTH 3 0
BBX 3 1 0 2
BITMAP
A4
ENDCHAR
STARTCHAR period
ENCODING 46
SWIDTH 213 0
DWIDTH 2 0
BBX 1 1 0 0
BITMAP
40
ENDCHAR
STARTCHAR slash
ENCODING 47
SWIDTH 262 0
DWIDTH 2 0
BBX 4 6 -1 0
BITMAP
01
05
08
14
20
90
ENDCHAR
STARTCHAR zero
ENCODING 48
SWIDTH 489 0
DWIDTH 4 0
BBX 4 6 0 0
BITMAP
19
22
52
85
88
54
ENDCHAR
STARTCHAR one
ENCODING 49
SWIDTH 272 0
DWIDTH 2 0
BBX 2 6 0 0
BITMAP
20
20
20
50
80
80
ENDCHAR
STARTCHAR two
ENCODING 50
SWIDTH 448 0
DWIDTH 4 0
BBX 4 6 0 0
BITMAP
15
55
08
14
50
A4
ENDCHAR
STARTCHAR three
ENCODING 51
SWIDTH 462 0
DWIDTH 4 0
BBX 4 6 0 0
BITMAP
29
55
08
18
08
94
ENDCHAR
STARTCHAR four
ENCODING 52
SWIDTH 452 0
DWIDTH 4 0
BBX 4 6 0 0
BITMAP
09
18
58
AC
08
14
ENDCHAR
STARTCHAR five
ENCODING 53
SWIDTH 444 0
DWIDTH 4 0
BBX 4 6 0 0
BITMAP
1A
10
64
58
44
E4
ENDCHAR
STARTCHAR six
ENCODING 54
SWIDTH 477 0
DWIDTH 4 0
BBX 4 6 0 0
BITMAP
19
25
68
95
88
54
ENDCHAR
STARTCHAR seven
ENCODING 55
SWIDTH 406 0
DWIDTH 3 0
BBX 4 6 0 0
BITMAP
69
05
08
20
60
90
ENDCHAR
STARTCHAR eight
ENCODING 56
SWIDTH 444 0
DWIDTH 4 0
BBX 4 6 0 0
BITMAP
15
25
28
68
88
94
ENDCHAR
STARTCHAR nine
ENCODING 57
SWIDTH 462 0
DWIDTH 4 0
BBX 4 6 0 0
BITMAP
14
51
45
59
08
A4
ENDCHAR
STARTCHAR colon
ENCODING 58
SWIDTH 226 0
DWIDTH 2 0
BBX 1 2 0 0
BITMAP
40
40
ENDCHAR
STARTCHAR semicolon
ENCODING 59
SWIDTH 212 0
DWIDTH 2 0
BBX 1 3 0 -1
BITMAP
40
40
40
ENDCHAR
STARTCHAR less
ENCODING 60
SWIDTH 271 0
DWIDTH 2 0
BBX 2 3 0 1
BITMAP
60
80
50
ENDCHAR
STARTCHAR equal
ENCODING 61
SWIDTH 374 0
DWIDTH 3 0
BBX 3 2 0 2
BITMAP
64
A4
ENDCHAR
STARTCHAR greater
ENCODING 62
SWIDTH 250 0
DWIDTH 2 0
BBX 2 3 0 1
BITMAP
50
20
80
ENDCHAR
STARTCHAR question
ENCODING 63
SWIDTH 413 0
DWIDTH 3 0
BBX 4 6 0 0
BITMAP
29
42
09
60
80
80
ENDCHAR
STARTCHAR at
ENCODING 64
SWIDTH 648 0
DWIDTH 5 0
BBX 5 5 0 0
BITMAP
2540
9A40
6140
6980
5600
ENDCHAR
STARTCHAR A
ENCODING 65
SWIDTH 552 0
DWIDTH 4 0
BBX 5 8 -1 -2
BITMAP
0180
0580
0880
1480
6A80
2140
6240
4140
ENDCHAR
STARTCHAR B
ENCODING 66
SWIDTH 607 0
DWIDTH 5 0
BBX 5 8 0 -2
BITMAP
2A40
2180
2240
2A00
5200
8200
8600
5400
ENDCHAR
STARTCHAR C
ENCODING 67
SWIDTH 548 0
DWIDTH 4 0
BBX 5 8 0 -2
BITMAP
0A00
2140
5240
8000
C000
8000
9500
1400
ENDCHAR
STARTCHAR D
ENCODING 68
SWIDTH 632 0
DWIDTH 5 0
BBX 5 8 0 -2
BITMAP
2900
1140
2080
2180
5140
5200
8900
5000
ENDCHAR
STARTCHAR E
ENCODING 69
SWIDTH 523 0
DWIDTH 4 0
BBX 6 8 -1 -2
BITMAP
0580
0850
1840
0900
2400
6040
2500
0400
ENDCHAR
STARTCHAR F
ENCODING 70
SWIDTH 585 0
DWIDTH 5 0
BBX 5 8 0 -2
BITMAP
2640
A140
0200
2A00
0800
0800
1800
1400
ENDCHAR
STARTCHAR G
ENCODING 71
SWIDTH 612 0
DWIDTH 5 0
BBX 5 8 0 -2
BITMAP
0640
2540
6240
9000
8640
8200
8500
1400
ENDCHAR
STARTCHAR H
ENCODING 72
SWIDTH 649 0
DWIDTH 5 0
BBX 5 8 0 -2
BITMAP
1440
2080
2080
6680
5A00
8600
8200
4000
ENDCHAR
STARTCHAR I
ENCODING 73
SWIDTH 537 0
DWIDTH 4 0
BBX 5 8 -1 -2
BITMAP
0180
0680
0580
0680
1680
6200
5500
1400
ENDCHAR
STARTCHAR J
ENCODING 74
SWIDTH 500 0
DWIDTH 4 0
BBX 6 8 -1 -2
BITMAP
0290
0080
0140
0240
2600
5200
8800
1400
ENDCHAR
STARTCHAR K
ENCODING 75
SWIDTH 497 0
DWIDTH 4 0
BBX 6 8 -1 -2
BITMAP
0850
0880
1540
2500
2600
2200
6200
1240
ENDCHAR
STARTCHAR L
ENCODING 76
SWIDTH 492 0
DWIDTH 4 0
BBX 5 8 -1 -2
BITMAP
0180
0280
1740
0900
0800
0800
B840
0640
ENDCHAR
STARTCHAR M
ENCODING 77
SWIDTH 733 0
DWIDTH 6 0
BBX 7 8 -1 -2
BITMAP
0218
0628
0A64
0A94
5660
9660
A020
5010
ENDCHAR
STARTCHAR N
ENCODING 78
SWIDTH 541 0
DWIDTH 4 0
BBX 6 8 -1 -2
BITMAP
0860
0C90
1890
2480
2540
2640
6300
1100
ENDCHAR
STARTCHAR O
ENCODING 79
SWIDTH 567 0
DWIDTH 5 0
BBX 4 8 0 -2
BITMAP
1A
22
52
82
82
86
88
10
ENDCHAR
STARTCHAR P
ENCODING 80
SWIDTH 552 0
DWIDTH 4 0
BBX 5 8 0 -2
BITMAP
2600
6180
2140
1600
6400
8000
8000
4000
ENDCHAR
STARTCHAR Q
ENCODING 81
SWIDTH 583 0
DWIDTH 5 0
BBX 5 8 0 -2
BITMAP
1A00
2140
5140
8240
8200
5500
AC00
5100
ENDCHAR
STARTCHAR R
ENCODING 82
SWIDTH 560 0
DWIDTH 4 0
BBX 5 8 0 -2
BITMAP
2600
6180
2140
6200
A800
9800
8800
4600
ENDCHAR
STARTCHAR S
ENCODING 83
SWIDTH 474 0
DWIDTH 4 0
BBX 5 8 -1 -2
BITMAP
0980
1480
1840
0900
0200
1200
6500
1400
ENDCHAR
STARTCHAR T
ENCODING 84
SWIDTH 423 0
DWIDTH 3 0
BBX 4 8 0 -2
BITMAP
6A
18
14
20
20
20
50
40
ENDCHAR
STARTCHAR U
ENCODING 85
SWIDTH 574 0
DWIDTH 5 0
BBX 5 8 0 -2
BITMAP
1080
2140
6240
9200
8200
8600
9900
5100
ENDCHAR
STARTCHAR V
ENCODING 86
SWIDTH 503 0
DWIDTH 4 0
BBX 5 8 0 -2
BITMAP
2140
5200
9200
8500
8800
8800
6000
1000
ENDCHAR
STARTCHAR W
ENCODING 87
SWIDTH 817 0
DWIDTH 7 0
BBX 7 8 0 -2
BITMAP
2114
2214
5214
8220
8520
8950
9680
1100
ENDCHAR
STARTCHAR X
ENCODING 88
SWIDTH 579 0
DWIDTH 5 0
BBX 5 8 0 -2
BITMAP
6080
9540
5A00
0C00
1800
2800
8940
4100
ENDCHAR
STARTCHAR Y
ENCODING 89
SWIDTH 532 0
DWIDTH 4 0
BBX 5 8 0 -2
BITMAP
2140
6240
5200
8200
9900
1400
9800
5000
ENDCHAR
STARTCHAR Z
ENCODING 90
SWIDTH 455 0
DWIDTH 4 0
BBX 5 8 -1 -2
BITMAP
1A80
0080
0240
0500
1800
2000
A900
5500
ENDCHAR
STARTCHAR bracketleft
ENCODING 91
SWIDTH 202 0
DWIDTH 2 0
BBX 4 8 -1 -1
BITMAP
05
08
14
10
20
20
50
50
ENDCHAR
STARTCHAR backslash
ENCODING 92
SWIDTH 273 0
DWIDTH 2 0
BBX 2 6 0 0
BITMAP
80
80
50
50
20
20
ENDCHAR
STARTCHAR bracketright
ENCODING 93
SWIDTH 216 0
DWIDTH 2 0
BBX 3 8 -1 -1
BITMAP
08
08
08
04
14
20
20
50
ENDCHAR
STARTCHAR asciicircum
ENCODING 94
SWIDTH 287 0
DWIDTH 2 0
BBX 3 3 0 3
BITMAP
24
64
84
ENDCHAR
STARTCHAR underscore
ENCODING 95
SWIDTH 439 0
DWIDTH 4 0
BBX 4 1 -1 0
BITMAP
6A
ENDCHAR
STARTCHAR grave
ENCODING 96
SWIDTH 567 0
DWIDTH 5 0
BBX 2 2 2 4
BITMAP
40
50
ENDCHAR
STARTCHAR a
ENCODING 97
SWIDTH 435 0
DWIDTH 3 0
BBX 4 4 0 0
BITMAP
10
54
95
A9
ENDCHAR
STARTCHAR b
ENCODING 98
SWIDTH 415 0
DWIDTH 3 0
BBX 4 6 0 0
BITMAP
10
20
50
99
84
A0
ENDCHAR
STARTCHAR c
ENCODING 99
SWIDTH 363 0
DWIDTH 3 0
BBX 4 4 0 0
BITMAP
10
A4
81
94
ENDCHAR
STARTCHAR d
ENCODING 100
SWIDTH 483 0
DWIDTH 4 0
BBX 5 6 0 0
BITMAP
0100
0600
0500
5C00
8440
9900
ENDCHAR
STARTCHAR e
ENCODING 101
SWIDTH 372 0
DWIDTH 3 0
BBX 4 4 0 0
BITMAP
10
64
91
94
ENDCHAR
STARTCHAR f
ENCODING 102
SWIDTH 325 0
DWIDTH 3 0
BBX 4 10 -1 -4
BITMAP
04
08
08
15
24
24
58
48
94
50
ENDCHAR
STARTCHAR g
ENCODING 103
SWIDTH 459 0
DWIDTH 4 0
BBX 4 7 0 -4
BITMAP
58
89
A9
24
A0
60
90
ENDCHAR
STARTCHAR h
ENCODING 104
SWIDTH 465 0
DWIDTH 4 0
BBX 4 6 0 0
BITMAP
10
20
50
A8
89
99
ENDCHAR
STARTCHAR i
ENCODING 105
SWIDTH 274 0
DWIDTH 2 0
BBX 3 5 0 0
BITMAP
10
00
90
84
90
ENDCHAR
STARTCHAR j
ENCODING 106
SWIDTH 267 0
DWIDTH 2 0
BBX 5 9 -2 -4
BITMAP
0100
0000
0500
0840
0900
1800
6400
A000
5000
ENDCHAR
STARTCHAR k
ENCODING 107
SWIDTH 440 0
DWIDTH 4 0
BBX 4 6 0 0
BITMAP
10
20
50
98
A5
59
ENDCHAR
STARTCHAR l
ENCODING 108
SWIDTH 218 0
DWIDTH 2 0
BBX 2 6 0 0
BITMAP
10
20
50
80
80
80
ENDCHAR
STARTCHAR m
ENCODING 109
SWIDTH 717 0
DWIDTH 6 0
BBX 6 3 0 0
BITMAP
6A80
8990
8990
ENDCHAR
STARTCHAR n
ENCODING 110
SWIDTH 461 0
DWIDTH 4 0
BBX 4 3 0 0
BITMAP
A8
89
99
ENDCHAR
STARTCHAR o
ENCODING 111
SWIDTH 393 0
DWIDTH 3 0
BBX 4 3 0 0
BITMAP
95
A8
A0
ENDCHAR
STARTCHAR p
ENCODING 112
SWIDTH 451 0
DWIDTH 4 0
BBX 5 7 -1 -4
BITMAP
2A00
2240
3A40
5000
5000
8000
4000
ENDCHAR
STARTCHAR q
ENCODING 113
SWIDTH 462 0
DWIDTH 4 0
BBX 4 7 0 -4
BITMAP
58
88
95
18
20
30
10
ENDCHAR
STARTCHAR r
ENCODING 114
SWIDTH 406 0
DWIDTH 3 0
BBX 5 4 -1 0
BITMAP
1400
2900
1540
4900
ENDCHAR
STARTCHAR s
ENCODING 115
SWIDTH 351 0
DWIDTH 3 0
BBX 2 4 0 0
BITMAP
10
60
60
A0
ENDCHAR
STARTCHAR t
ENCODING 116
SWIDTH 301 0
DWIDTH 2 0
BBX 4 6 -1 0
BITMAP
04
5D
18
14
11
24
ENDCHAR
STARTCHAR u
ENCODING 117
SWIDTH 468 0
DWIDTH 4 0
BBX 4 3 0 0
BITMAP
88
89
99
ENDCHAR
STARTCHAR v
ENCODING 118
SWIDTH 427 0
DWIDTH 3 0
BBX 4 3 0 0
BITMAP
88
99
90
ENDCHAR
STARTCHAR w
ENCODING 119
SWIDTH 646 0
DWIDTH 5 0
BBX 6 3 0 0
BITMAP
8940
8550
9900
ENDCHAR
STARTCHAR x
ENCODING 120
SWIDTH 399 0
DWIDTH 3 0
BBX 3 3 0 0
BITMAP
98
60
A4
ENDCHAR
STARTCHAR y
ENCODING 121
SWIDTH 406 0
DWIDTH 3 0
BBX 3 6 0 -3
BITMAP
88
98
A4
20
20
20
ENDCHAR
STARTCHAR z
ENCODING 122
SWIDTH 448 0
DWIDTH 4 0
BBX 5 7 -1 -4
BITMAP
0600
0500
0A40
0600
2500
5800
1000
ENDCHAR
STARTCHAR braceleft
ENCODING 123
SWIDTH 243 0
DWIDTH 2 0
BBX 3 8 0 -1
BITMAP
14
20
20
50
40
80
80
80
ENDCHAR
STARTCHAR bar
ENCODING 124
SWIDTH 253 0
DWIDTH 2 0
BBX 2 6 0 0
BITMAP
20
20
10
40
80
80
ENDCHAR
STARTCHAR braceright
ENCODING 125
SWIDTH 243 0
DWIDTH 2 0
BBX 3 8 -1 -1
BITMAP
04
08
08
14
14
20
20
90
ENDCHAR
STARTCHAR asciitilde
ENCODING 126
SWIDTH 329 0
DWIDTH 3 0
BBX 3 2 0 2
BITMAP
40
54
ENDCHAR
STARTCHAR uni00A0
ENCODING 160
SWIDTH 280 0
DWIDTH 2 0
BBX 1 1 0 0
BITMAP
00
ENDCHAR
STARTCHAR exclamdown
ENCODING 161
SWIDTH 249 0
DWIDTH 2 0
BBX 2 6 0 0
BITMAP
20
10
50
50
80
80
ENDCHAR
STARTCHAR cent
ENCODING 162
SWIDTH 322 0
DWIDTH 3 0
BBX 3 5 0 0
BITMAP
14
94
80
90
40
ENDCHAR
STARTCHAR sterling
ENCODING 163
SWIDTH 318 0
DWIDTH 3 0
BBX 4 6 -1 0
BITMAP
05
06
10
24
10
54
ENDCHAR
STARTCHAR currency
ENCODING 164
SWIDTH 347 0
DWIDTH 3 0
BBX 3 3 0 1
BITMAP
64
A0
40
ENDCHAR
STARTCHAR yen
ENCODING 165
SWIDTH 326 0
DWIDTH 3 0
BBX 3 5 0 0
BITMAP
48
64
60
90
40
ENDCHAR
STARTCHAR brokenbar
ENCODING 166
SWIDTH 253 0
DWIDTH 2 0
BBX 2 6 0 0
BITMAP
20
20
10
40
80
80
ENDCHAR
STARTCHAR section
ENCODING 167
SWIDTH 297 0
DWIDTH 2 0
BBX 3 6 0 0
BITMAP
14
54
60
90
50
60
ENDCHAR
STARTCHAR dieresis
ENCODING 168
SWIDTH 567 0
DWIDTH 5 0
BBX 1 1 3 4
BITMAP
40
ENDCHAR
STARTCHAR copyright
ENCODING 169
SWIDTH 456 0
DWIDTH 4 0
BBX 4 4 0 2
BITMAP
15
59
51
55
ENDCHAR
STARTCHAR ordfeminine
ENCODING 170
SWIDTH 373 0
DWIDTH 3 0
BBX 3 4 0 0
BITMAP
60
90
A4
90
ENDCHAR
STARTCHAR guillemotleft
ENCODING 171
SWIDTH 346 0
DWIDTH 3 0
BBX 3 3 0 0
BITMAP
54
A0
50
ENDCHAR
STARTCHAR logicalnot
ENCODING 172
SWIDTH 512 0
DWIDTH 4 0
BBX 4 3 0 1
BITMAP
14
56
01
ENDCHAR
STARTCHAR sfthyphen
ENCODING 173
SWIDTH 353 0
DWIDTH 3 0
BBX 3 1 0 2
BITMAP
A4
ENDCHAR
STARTCHAR registered
ENCODING 174
SWIDTH 456 0
DWIDTH 4 0
BBX 4 4 0 2
BITMAP
15
55
55
59
ENDCHAR
STARTCHAR macron
ENCODING 175
SWIDTH 567 0
DWIDTH 5 0
BBX 2 2 2 4
BITMAP
40
50
ENDCHAR
STARTCHAR degree
ENCODING 176
SWIDTH 144 0
DWIDTH 1 0
BBX 2 1 0 4
BITMAP
50
ENDCHAR
STARTCHAR twosuperior
ENCODING 178
SWIDTH 268 0
DWIDTH 2 0
BBX 3 4 0 2
BITMAP
24
14
50
A0
ENDCHAR
STARTCHAR threesuperior
ENCODING 179
SWIDTH 262 0
DWIDTH 2 0
BBX 3 4 0 2
BITMAP
64
20
20
50
ENDCHAR
STARTCHAR acute
ENCODING 180
SWIDTH 567 0
DWIDTH 5 0
BBX 1 1 2 4
BITMAP
40
ENDCHAR
STARTCHAR mu
ENCODING 181
SWIDTH 453 0
DWIDTH 4 0
BBX 4 5 -1 -2
BITMAP
25
25
69
80
40
ENDCHAR
STARTCHAR paragraph
ENCODING 182
SWIDTH 411 0
DWIDTH 3 0
BBX 4 6 0 0
BITMAP
1A
B9
B8
24
24
24
ENDCHAR
STARTCHAR periodcentered
ENCODING 183
SWIDTH 168 0
DWIDTH 1 0
BBX 1 1 0 2
BITMAP
80
ENDCHAR
STARTCHAR cedilla
ENCODING 184
SWIDTH 567 0
DWIDTH 5 0
BBX 2 2 2 -1
BITMAP
40
50
ENDCHAR
STARTCHAR onesuperior
ENCODING 185
SWIDTH 150 0
DWIDTH 1 0
BBX 2 4 0 2
BITMAP
10
50
40
40
ENDCHAR
STARTCHAR ordmasculine
ENCODING 186
SWIDTH 319 0
DWIDTH 3 0
BBX 3 4 0 0
BITMAP
50
A4
A0
90
ENDCHAR
STARTCHAR guillemotright
ENCODING 187
SWIDTH 346 0
DWIDTH 3 0
BBX 4 3 -1 0
BITMAP
14
15
54
ENDCHAR
STARTCHAR onequarter
ENCODING 188
SWIDTH 579 0
DWIDTH 5 0
BBX 4 6 0 0
BITMAP
11
51
49
56
5A
82
ENDCHAR
STARTCHAR onehalf
ENCODING 189
SWIDTH 603 0
DWIDTH 5 0
BBX 5 6 0 0
BITMAP
1100
5100
4940
5580
5100
8A00
ENDCHAR
STARTCHAR threequarters
ENCODING 190
SWIDTH 669 0
DWIDTH 5 0
BBX 5 6 0 0
BITMAP
6440
2140
2540
5980
1680
5040
ENDCHAR
STARTCHAR questiondown
ENCODING 191
SWIDTH 413 0
DWIDTH 3 0
BBX 5 6 -1 0
BITMAP
0140
0100
0200
1400
5100
6600
ENDCHAR
STARTCHAR Agrave
ENCODING 192
SWIDTH 552 0
DWIDTH 4 0
BBX 5 10 -1 -2
BITMAP
0040
0040
0180
0580
0880
1480
6A80
2140
6240
4140
ENDCHAR
STARTCHAR Aacute
ENCODING 193
SWIDTH 552 0
DWIDTH 4 0
BBX 5 10 -1 -2
BITMAP
0040
0040
0180
0580
0880
1480
6A80
2140
6240
4140
ENDCHAR
STARTCHAR Acircumflex
ENCODING 194
SWIDTH 552 0
DWIDTH 4 0
BBX 5 10 -1 -2
BITMAP
0040
0140
0180
0580
0880
1480
6A80
2140
6240
4140
ENDCHAR
STARTCHAR Atilde
ENCODING 195
SWIDTH 552 0
DWIDTH 4 0
BBX 6 10 -1 -2
BITMAP
0040
0150
0180
0580
0880
1480
6A80
2140
6240
4140
ENDCHAR
STARTCHAR Adieresis
ENCODING 196
SWIDTH 552 0
DWIDTH 4 0
BBX 6 9 -1 -2
BITMAP
0010
0180
0580
0880
1480
6A80
2140
6240
4140
ENDCHAR
STARTCHAR Aring
ENCODING 197
SWIDTH 552 0
DWIDTH 4 0
BBX 5 9 -1 -2
BITMAP
0080
0180
0580
0880
1480
6A80
2140
6240
4140
ENDCHAR
STARTCHAR AE
ENCODING 198
SWIDTH 869 0
DWIDTH 7 0
BBX 8 8 -1 -2
BITMAP
0196
05A2
08D1
14A4
6A80
2141
6294
4150
ENDCHAR
STARTCHAR Ccedilla
ENCODING 199
SWIDTH 548 0
DWIDTH 4 0
BBX 5 9 0 -3
BITMAP
0A00
2140
5240
8000
C000
C000
9500
2400
2400
ENDCHAR
STARTCHAR Egrave
ENCODING 200
SWIDTH 523 0
DWIDTH 4 0
BBX 6 10 -1 -2
BITMAP
0100
0040
0580
0850
1840
0900
2400
6040
2500
0400
ENDCHAR
STARTCHAR Eacute
ENCODING 201
SWIDTH 523 0
DWIDTH 4 0
BBX 6 10 -1 -2
BITMAP
0040
0040
0580
0850
1840
0900
2400
6040
2500
0400
ENDCHAR
STARTCHAR Ecircumflex
ENCODING 202
SWIDTH 523 0
DWIDTH 4 0
BBX 6 10 -1 -2
BITMAP
0040
0140
0580
0850
1840
0900
2400
6040
2500
0400
ENDCHAR
STARTCHAR Edieresis
ENCODING 203
SWIDTH 523 0
DWIDTH 4 0
BBX 6 9 -1 -2
BITMAP
0140
0580
0850
1840
0900
2400
6040
2500
0400
ENDCHAR
STARTCHAR Igrave
ENCODING 204
SWIDTH 537 0
DWIDTH 4 0
BBX 5 10 -1 -2
BITMAP
0040
0040
0180
0680
0580
0680
1680
6200
5500
1400
ENDCHAR
STARTCHAR Iacute
ENCODING 205
SWIDTH 537 0
DWIDTH 4 0
BBX 5 9 -1 -2
BITMAP
0040
0180
0680
0580
0680
1680
6200
5500
1400
ENDCHAR
STARTCHAR Icircumflex
ENCODING 206
SWIDTH 537 0
DWIDTH 4 0
BBX 6 10 -1 -2
BITMAP
0040
0050
0180
0680
0580
0680
1680
6200
5500
1400
ENDCHAR
STARTCHAR Idieresis
ENCODING 207
SWIDTH 537 0
DWIDTH 4 0
BBX 6 9 -1 -2
BITMAP
0010
0180
0680
0580
0680
1680
6200
5500
1400
ENDCHAR
STARTCHAR Eth
ENCODING 208
SWIDTH 632 0
DWIDTH 5 0
BBX 5 8 0 -2
BITMAP
2900
1140
2080
B580
5140
5200
8900
5000
ENDCHAR
STARTCHAR Ntilde
ENCODING 209
SWIDTH 541 0
DWIDTH 4 0
BBX 6 10 -1 -2
BITMAP
0100
0140
0860
0C90
1890
2480
2540
2640
6300
1100
ENDCHAR
STARTCHAR Ograve
ENCODING 210
SWIDTH 567 0
DWIDTH 5 0
BBX 4 10 0 -2
BITMAP
04
01
1A
22
52
82
82
86
88
10
ENDCHAR
STARTCHAR Oacute
ENCODING 211
SWIDTH 567 0
DWIDTH 5 0
BBX 4 10 0 -2
BITMAP
01
05
1A
22
52
82
82
86
88
10
ENDCHAR
STARTCHAR Ocircumflex
ENCODING 212
SWIDTH 567 0
DWIDTH 5 0
BBX 4 10 0 -2
BITMAP
01
05
1A
22
52
82
82
86
88
10
ENDCHAR
STARTCHAR Otilde
ENCODING 213
SWIDTH 567 0
DWIDTH 5 0
BBX 4 10 0 -2
BITMAP
04
05
1A
22
52
82
82
86
88
10
ENDCHAR
STARTCHAR Odieresis
ENCODING 214
SWIDTH 567 0
DWIDTH 5 0
BBX 4 9 0 -2
BITMAP
05
1A
22
52
82
82
86
88
10
ENDCHAR
STARTCHAR multiply
ENCODING 215
SWIDTH 281 0
DWIDTH 2 0
BBX 3 3 0 1
BITMAP
64
50
50
ENDCHAR
STARTCHAR Oslash
ENCODING 216
SWIDTH 597 0
DWIDTH 5 0
BBX 5 8 0 -2
BITMAP
1A40
2200
5640
9A40
A600
A200
9800
9000
ENDCHAR
STARTCHAR Ugrave
ENCODING 217
SWIDTH 574 0
DWIDTH 5 0
BBX 5 10 0 -2
BITMAP
0400
0100
1080
2140
6240
9200
8200
8600
9900
5100
ENDCHAR
STARTCHAR Uacute
ENCODING 218
SWIDTH 574 0
DWIDTH 5 0
BBX 5 9 0 -2
BITMAP
0100
1080
2140
6240
9200
8200
8600
9900
5100
ENDCHAR
STARTCHAR Ucircumflex
ENCODING 219
SWIDTH 574 0
DWIDTH 5 0
BBX 5 10 0 -2
BITMAP
0100
0500
1080
2140
6240
9200
8200
8600
9900
5100
ENDCHAR
STARTCHAR Udieresis
ENCODING 220
SWIDTH 574 0
DWIDTH 5 0
BBX 5 9 0 -2
BITMAP
0500
1080
2140
6240
9200
8200
8600
9900
5100
ENDCHAR
STARTCHAR Yacute
ENCODING 221
SWIDTH 532 0
DWIDTH 4 0
BBX 5 10 0 -2
BITMAP
0100
0500
2140
6240
5200
8200
9900
1400
9800
5000
ENDCHAR
STARTCHAR Thorn
ENCODING 222
SWIDTH 569 0
DWIDTH 5 0
BBX 5 8 0 -2
BITMAP
2000
3500
A240
5240
8200
9800
8000
4000
ENDCHAR
STARTCHAR germandbls
ENCODING 223
SWIDTH 495 0
DWIDTH 4 0
BBX 5 10 -1 -4
BITMAP
0100
0A40
1600
2200
6140
2640
5900
8800
9400
9000
ENDCHAR
STARTCHAR agrave
ENCODING 224
SWIDTH 435 0
DWIDTH 3 0
BBX 4 5 0 0
BITMAP
10
14
54
95
A9
ENDCHAR
STARTCHAR aacute
ENCODING 225
SWIDTH 435 0
DWIDTH 3 0
BBX 4 5 0 0
BITMAP
04
20
54
95
A9
ENDCHAR
STARTCHAR acircumflex
ENCODING 226
SWIDTH 435 0
DWIDTH 3 0
BBX 4 5 0 0
BITMAP
14
14
54
95
A9
ENDCHAR
STARTCHAR atilde
ENCODING 227
SWIDTH 435 0
DWIDTH 3 0
BBX 4 5 0 0
BITMAP
10
14
54
95
A9
ENDCHAR
STARTCHAR adieresis
ENCODING 228
SWIDTH 435 0
DWIDTH 3 0
BBX 4 4 0 0
BITMAP
14
54
95
A9
ENDCHAR
STARTCHAR aring
ENCODING 229
SWIDTH 435 0
DWIDTH 3 0
BBX 4 5 0 0
BITMAP
10
14
54
95
A9
ENDCHAR
STARTCHAR ae
ENCODING 230
SWIDTH 594 0
DWIDTH 5 0
BBX 5 4 0 0
BITMAP
1100
6A00
9940
A940
ENDCHAR
STARTCHAR ccedilla
ENCODING 231
SWIDTH 363 0
DWIDTH 3 0
BBX 4 6 0 -2
BITMAP
10
A4
81
94
50
10
ENDCHAR
STARTCHAR egrave
ENCODING 232
SWIDTH 372 0
DWIDTH 3 0
BBX 4 5 0 0
BITMAP
10
10
64
91
94
ENDCHAR
STARTCHAR eacute
ENCODING 233
SWIDTH 372 0
DWIDTH 3 0
BBX 4 5 0 0
BITMAP
04
20
64
91
94
ENDCHAR
STARTCHAR ecircumflex
ENCODING 234
SWIDTH 372 0
DWIDTH 3 0
BBX 4 5 0 0
BITMAP
14
14
64
91
94
ENDCHAR
STARTCHAR edieresis
ENCODING 235
SWIDTH 372 0
DWIDTH 3 0
BBX 4 4 0 0
BITMAP
14
64
91
94
ENDCHAR
STARTCHAR igrave
ENCODING 236
SWIDTH 274 0
DWIDTH 2 0
BBX 3 5 0 0
BITMAP
40
50
90
84
90
ENDCHAR
STARTCHAR iacute
ENCODING 237
SWIDTH 274 0
DWIDTH 2 0
BBX 3 4 0 0
BITMAP
10
90
84
90
ENDCHAR
STARTCHAR icircumflex
ENCODING 238
SWIDTH 274 0
DWIDTH 2 0
BBX 3 5 0 0
BITMAP
10
50
90
84
90
ENDCHAR
STARTCHAR idieresis
ENCODING 239
SWIDTH 274 0
DWIDTH 2 0
BBX 3 4 0 0
BITMAP
50
90
84
90
ENDCHAR
STARTCHAR eth
ENCODING 240
SWIDTH 393 0
DWIDTH 3 0
BBX 4 5 0 0
BITMAP
18
14
95
A8
A0
ENDCHAR
STARTCHAR ntilde
ENCODING 241
SWIDTH 461 0
DWIDTH 4 0
BBX 4 5 0 0
BITMAP
10
14
A8
89
99
ENDCHAR
STARTCHAR ograve
ENCODING 242
SWIDTH 393 0
DWIDTH 3 0
BBX 4 5 0 0
BITMAP
10
10
95
A8
A0
ENDCHAR
STARTCHAR oacute
ENCODING 243
SWIDTH 393 0
DWIDTH 3 0
BBX 4 5 0 0
BITMAP
04
10
95
A8
A0
ENDCHAR
STARTCHAR ocircumflex
ENCODING 244
SWIDTH 393 0
DWIDTH 3 0
BBX 4 5 0 0
BITMAP
10
14
95
A8
A0
ENDCHAR
STARTCHAR otilde
ENCODING 245
SWIDTH 393 0
DWIDTH 3 0
BBX 4 5 0 0
BITMAP
10
54
95
A8
A0
ENDCHAR
STARTCHAR odieresis
ENCODING 246
SWIDTH 393 0
DWIDTH 3 0
BBX 4 4 0 0
BITMAP
14
95
A8
A0
ENDCHAR
STARTCHAR divide
ENCODING 247
SWIDTH 350 0
DWIDTH 3 0
BBX 3 3 0 1
BITMAP
10
54
10
ENDCHAR
STARTCHAR oslash
ENCODING 248
SWIDTH 406 0
DWIDTH 3 0
BBX 4 5 0 -1
BITMAP
04
95
A8
A0
40
ENDCHAR
STARTCHAR ugrave
ENCODING 249
SWIDTH 468 0
DWIDTH 4 0
BBX 4 5 0 0
BITMAP
10
14
88
89
99
ENDCHAR
STARTCHAR uacute
ENCODING 250
SWIDTH 468 0
DWIDTH 4 0
BBX 4 5 0 0
BITMAP
04
10
88
89
99
ENDCHAR
STARTCHAR ucircumflex
ENCODING 251
SWIDTH 468 0
DWIDTH 4 0
BBX 4 5 0 0
BITMAP
14
14
88
89
99
ENDCHAR
STARTCHAR udieresis
ENCODING 252
SWIDTH 468 0
DWIDTH 4 0
BBX 4 4 0 0
BITMAP
14
88
89
99
ENDCHAR
STARTCHAR yacute
ENCODING 253
SWIDTH 406 0
DWIDTH 3 0
BBX 3 8 0 -3
BITMAP
04
14
88
98
A4
20
20
20
ENDCHAR
STARTCHAR thorn
ENCODING 254
SWIDTH 451 0
DWIDTH 4 0
BBX 5 10 -1 -4
BITMAP
0400
0800
1400
1A00
2240
3A40
5000
5000
8000
4000
ENDCHAR
STARTCHAR ydieresis
ENCODING 255
SWIDTH 406 0
DWIDTH 3 0
BBX 3 7 0 -3
BITMAP
04
88
98
A4
20
20
20
ENDCHAR
STARTCHAR dotlessi
ENCODING 305
SWIDTH 274 0
DWIDTH 2 0
BBX 3 3 0 0
BITMAP
90
84
90
ENDCHAR
STARTCHAR Lslash
ENCODING 321
SWIDTH 492 0
DWIDTH 4 0
BBX 5 8 -1 -2
BITMAP
0180
0280
1740
0900
1A00
0800
B840
0640
ENDCHAR
STARTCHAR lslash
ENCODING 322
SWIDTH 218 0
DWIDTH 2 0
BBX 3 6 -1 0
BITMAP
04
08
18
64
20
20
ENDCHAR
STARTCHAR OE
ENCODING 338
SWIDTH 918 0
DWIDTH 7 0
BBX 8 8 0 -2
BITMAP
1A25
2285
5284
8290
8240
8604
8A54
1050
ENDCHAR
STARTCHAR oe
ENCODING 339
SWIDTH 583 0
DWIDTH 5 0
BBX 5 4 0 0
BITMAP
0100
9A00
A940
A940
ENDCHAR
STARTCHAR Scaron
ENCODING 352
SWIDTH 474 0
DWIDTH 4 0
BBX 5 10 -1 -2
BITMAP
0140
0040
0980
1480
1840
0900
0200
1200
6500
1400
ENDCHAR
STARTCHAR scaron
ENCODING 353
SWIDTH 351 0
DWIDTH 3 0
BBX 3 6 0 0
BITMAP
14
10
10
60
60
A0
ENDCHAR
STARTCHAR Ydieresis
ENCODING 376
SWIDTH 532 0
DWIDTH 4 0
BBX 5 9 0 -2
BITMAP
0500
2140
6240
5200
8200
9900
1400
9800
5000
ENDCHAR
STARTCHAR Zcaron
ENCODING 381
SWIDTH 455 0
DWIDTH 4 0
BBX 5 10 -1 -2
BITMAP
0140
0140
1A80
0080
0240
0500
1800
2000
A900
5500
ENDCHAR
STARTCHAR zcaron
ENCODING 382
SWIDTH 349 0
DWIDTH 3 0
BBX 4 9 -1 -4
BITMAP
05
08
28
08
29
18
98
A0
50
ENDCHAR
STARTCHAR circumflex
ENCODING 710
SWIDTH 567 0
DWIDTH 5 0
BBX 2 2 2 4
BITMAP
50
50
ENDCHAR
STARTCHAR caron
ENCODING 711
SWIDTH 567 0
DWIDTH 5 0
BBX 2 2 2 4
BITMAP
50
40
ENDCHAR
STARTCHAR breve
ENCODING 728
SWIDTH 567 0
DWIDTH 5 0
BBX 2 1 2 4
BITMAP
90
ENDCHAR
STARTCHAR dotaccent
ENCODING 729
SWIDTH 567 0
DWIDTH 5 0
BBX 1 1 2 4
BITMAP
40
ENDCHAR
STARTCHAR ring
ENCODING 730
SWIDTH 567 0
DWIDTH 5 0
BBX 1 2 2 4
BITMAP
40
40
ENDCHAR
STARTCHAR ogonek
ENCODING 731
SWIDTH 567 0
DWIDTH 5 0
BBX 2 1 2 -1
BITMAP
90
ENDCHAR
STARTCHAR tilde
ENCODING 732
SWIDTH 567 0
DWIDTH 5 0
BBX 2 2 2 4
BITMAP
40
50
ENDCHAR
STARTCHAR hungarumlaut
ENCODING 733
SWIDTH 567 0
DWIDTH 5 0
BBX 3 2 1 4
BITMAP
14
54
ENDCHAR
STARTCHAR endash
ENCODING 8211
SWIDTH 353 0
DWIDTH 3 0
BBX 3 1 0 2
BITMAP
A4
ENDCHAR
STARTCHAR emdash
ENCODING 8212
SWIDTH 508 0
DWIDTH 4 0
BBX 4 1 0 2
BITMAP
AA
ENDCHAR
STARTCHAR quoteleft
ENCODING 8216
SWIDTH 155 0
DWIDTH 1 0
BBX 1 1 0 4
BITMAP
80
ENDCHAR
STARTCHAR quoteright
ENCODING 8217
SWIDTH 154 0
DWIDTH 1 0
BBX 2 1 0 4
BITMAP
50
ENDCHAR
STARTCHAR quotesinglbase
ENCODING 8218
SWIDTH 188 0
DWIDTH 2 0
BBX 1 2 0 -1
BITMAP
40
40
ENDCHAR
STARTCHAR quotedblleft
ENCODING 8220
SWIDTH 289 0
DWIDTH 2 0
BBX 3 1 0 4
BITMAP
A4
ENDCHAR
STARTCHAR quotedblright
ENCODING 8221
SWIDTH 288 0
DWIDTH 2 0
BBX 3 2 0 4
BITMAP
14
64
ENDCHAR
STARTCHAR quotedblbase
ENCODING 8222
SWIDTH 323 0
DWIDTH 3 0
BBX 2 2 0 -1
BITMAP
A0
50
ENDCHAR
STARTCHAR bullet
ENCODING 8226
SWIDTH 180 0
DWIDTH 1 0
BBX 2 2 0 1
BITMAP
D0
80
ENDCHAR
STARTCHAR ellipsis
ENCODING 8230
SWIDTH 614 0
DWIDTH 5 0
BBX 4 1 0 0
BITMAP
55
ENDCHAR
STARTCHAR perthousand
ENCODING 8240
SWIDTH 851 0
DWIDTH 7 0
BBX 7 6 0 0
BITMAP
2140
9600
6800
1510
2984
8A60
ENDCHAR
STARTCHAR guilsinglleft
ENCODING 8249
SWIDTH 202 0
DWIDTH 2 0
BBX 1 3 0 0
BITMAP
40
40
40
ENDCHAR
STARTCHAR guilsinglright
ENCODING 8250
SWIDTH 202 0
DWIDTH 2 0
BBX 2 3 -1 0
BITMAP
10
10
50
ENDCHAR
STARTCHAR fraction
ENCODING 8260
SWIDTH 600 0
DWIDTH 5 0
BBX 5 6 0 0
BITMAP
0040
0200
0500
0400
2000
5000
ENDCHAR
STARTCHAR Euro
ENCODING 8364
SWIDTH 334 0
DWIDTH 3 0
BBX 3 5 0 0
BITMAP
24
A0
90
40
10
ENDCHAR
STARTCHAR minus
ENCODING 8722
SWIDTH 353 0
DWIDTH 3 0
BBX 3 1 0 2
BITMAP
A4
ENDCHAR
STARTCHAR fi
ENCODING 64257
SWIDTH 549 0
DWIDTH 4 0
BBX 6 10 -1 -4
BITMAP
0400
0840
0800
1540
2610
2540
5800
4800
9400
5000
ENDCHAR
STARTCHAR fl
ENCODING 64258
SWIDTH 516 0
DWIDTH 4 0
BBX 5 10 -1 -4
BITMAP
0440
0880
0880
1580
2540
2600
5800
4800
9400
5000
ENDCHAR
STARTCHAR .notdef
ENCODING -1
SWIDTH 280 0
DWIDTH 2 0
BBX 1 1 0 0
BITMAP
00
ENDCHAR
ENDFONT
